# xmcd
#
# Track frame offsets:
#	150
#	15892
#	29933
#	49403
#	67837
#	84525
#	102403
#	124077
#	142135
#	158723
#	177122
#
# Disc length: 2602 seconds
#
# Revision: 1
# Processed by: cddbd v1.5.2PL0 Copyright (c) Steve Scherf et al.
# Submitted via: audiograbber 1.83.01
#
DISCID=920a280b
DTITLE=Travis Tritt - Down the Road I Go
DYEAR=2000
DGENRE=Country
TTITLE0=Down the Road I Go
TTITLE1=Livin' on Borrowed Time
TTITLE2=Best of Intentions
TTITLE3=It's a Great Day to Be Alive
TTITLE4=Love of a Woman
TTITLE5=Never Get Away From Me (For Waylon and Jessi)
TTITLE6=Modern Day Bonnie and Clyde
TTITLE7=I Wish I Was Wrong
TTITLE8=If the Fall Don't Kill You
TTITLE9=Just Too Tired to Fight It
TTITLE10=Southbound Train
EXTD=
EXTT0=
EXTT1=
EXTT2=
EXTT3=
EXTT4=
EXTT5=
EXTT6=
EXTT7=
EXTT8=
EXTT9=
EXTT10=
PLAYORDER=
